<svg width="328" height="25" viewBox="0 0 328 25" fill="none" xmlns="http://www.w3.org/2000/svg">
<rect y="0.5" width="32" height="24" rx="4" fill="#F6F6FA"/>
<path fill-rule="evenodd" clip-rule="evenodd" d="M16.4709 10.6782C16.453 12.0858 17.7254 12.8713 18.6838 13.3384C19.6686 13.8176 19.9994 14.1249 19.9956 14.5534C19.9881 15.2093 19.21 15.4987 18.4818 15.51C17.2113 15.5297 16.4727 15.167 15.8855 14.8926L15.4279 17.0341C16.017 17.3057 17.108 17.5425 18.2394 17.5528C20.8949 17.5528 22.6323 16.242 22.6418 14.2095C22.6521 11.6301 19.0738 11.4873 19.0982 10.3343C19.1067 9.98472 19.4403 9.61163 20.1713 9.51674C20.5331 9.46886 21.532 9.43217 22.6643 9.95366L23.1087 7.88176C22.4998 7.65997 21.7171 7.44757 20.7427 7.44757C18.2431 7.44757 16.485 8.77627 16.4709 10.6782ZM27.3796 7.6261C26.8947 7.6261 26.4859 7.90899 26.3037 8.3431L22.5102 17.4006H25.1638L25.6919 15.9412H28.9347L29.241 17.4006H31.5799L29.5389 7.6261H27.3796ZM27.7507 10.2666L28.5165 13.9369H26.4192L27.7507 10.2666ZM13.2535 7.6261L11.1618 17.4006H13.6904L15.7812 7.6261H13.2535ZM9.51266 7.6261L6.88061 14.279L5.81595 8.62215C5.69101 7.99074 5.19768 7.6261 4.64982 7.6261H0.347122L0.286962 7.90992C1.17028 8.10159 2.17385 8.41077 2.78179 8.74153C3.15386 8.94353 3.2601 9.12018 3.38222 9.60037L5.39874 17.4006H8.07123L12.1682 7.6261H9.51266Z" fill="#1434CB"/>
<path d="M41.6562 19.5H40.375V9.82031C40.276 9.91927 40.1302 10.0339 39.9375 10.1641C39.75 10.2891 39.5365 10.4141 39.2969 10.5391C39.0625 10.6641 38.8125 10.7812 38.5469 10.8906C38.2865 11 38.0312 11.0859 37.7812 11.1484V9.85156C38.0625 9.77344 38.3594 9.66927 38.6719 9.53906C38.9896 9.40365 39.2995 9.25521 39.6016 9.09375C39.9089 8.92708 40.1979 8.75521 40.4688 8.57812C40.7396 8.39583 40.974 8.21875 41.1719 8.04688H41.6562V19.5ZM50.6562 11.2344C50.6562 10.8906 50.6016 10.5911 50.4922 10.3359C50.388 10.0807 50.2422 9.86979 50.0547 9.70312C49.8724 9.53125 49.6562 9.40365 49.4062 9.32031C49.1562 9.23698 48.8854 9.19531 48.5938 9.19531C48.3438 9.19531 48.099 9.22917 47.8594 9.29688C47.6198 9.36458 47.3854 9.45833 47.1562 9.57812C46.9323 9.69792 46.7135 9.84115 46.5 10.0078C46.2917 10.1745 46.0964 10.3594 45.9141 10.5625V9.1875C46.2734 8.83854 46.6745 8.57292 47.1172 8.39062C47.5651 8.20312 48.1094 8.10938 48.75 8.10938C49.2083 8.10938 49.6328 8.17708 50.0234 8.3125C50.4141 8.44271 50.7526 8.63542 51.0391 8.89062C51.3255 9.14583 51.5495 9.46094 51.7109 9.83594C51.8776 10.2109 51.9609 10.6406 51.9609 11.125C51.9609 11.5677 51.9089 11.9688 51.8047 12.3281C51.7057 12.6875 51.5521 13.026 51.3438 13.3438C51.1406 13.6615 50.8828 13.9661 50.5703 14.2578C50.2578 14.5495 49.8906 14.8464 49.4688 15.1484C48.9427 15.5234 48.5078 15.8438 48.1641 16.1094C47.8255 16.375 47.5547 16.625 47.3516 16.8594C47.1536 17.0885 47.013 17.3203 46.9297 17.5547C46.8516 17.7839 46.8125 18.0495 46.8125 18.3516H52.3906V19.5H45.4766V18.9453C45.4766 18.4661 45.5286 18.0443 45.6328 17.6797C45.737 17.3151 45.9089 16.9688 46.1484 16.6406C46.388 16.3125 46.7005 15.9844 47.0859 15.6562C47.4766 15.3281 47.9531 14.9583 48.5156 14.5469C48.9219 14.2552 49.2604 13.9766 49.5312 13.7109C49.8073 13.4453 50.0286 13.1797 50.1953 12.9141C50.362 12.6484 50.4792 12.3802 50.5469 12.1094C50.6198 11.8333 50.6562 11.5417 50.6562 11.2344ZM60.6953 16.3281C60.6953 16.8333 60.599 17.2943 60.4062 17.7109C60.2188 18.1224 59.9505 18.4766 59.6016 18.7734C59.2578 19.0651 58.8438 19.2917 58.3594 19.4531C57.875 19.6146 57.3411 19.6953 56.7578 19.6953C55.6901 19.6953 54.8411 19.4922 54.2109 19.0859V17.7109C54.9661 18.3047 55.8307 18.6016 56.8047 18.6016C57.1953 18.6016 57.5469 18.5521 57.8594 18.4531C58.1771 18.3542 58.4479 18.2109 58.6719 18.0234C58.901 17.8359 59.0755 17.6094 59.1953 17.3438C59.3203 17.0781 59.3828 16.7786 59.3828 16.4453C59.3828 14.9818 58.3411 14.25 56.2578 14.25H55.3281V13.1641H56.2109C58.0547 13.1641 58.9766 12.4766 58.9766 11.1016C58.9766 9.83073 58.2734 9.19531 56.8672 9.19531C56.0755 9.19531 55.3333 9.46094 54.6406 9.99219V8.75C55.3542 8.32292 56.2031 8.10938 57.1875 8.10938C57.6562 8.10938 58.0807 8.17448 58.4609 8.30469C58.8411 8.4349 59.1667 8.61719 59.4375 8.85156C59.7083 9.08594 59.9167 9.36719 60.0625 9.69531C60.2135 10.0234 60.2891 10.3854 60.2891 10.7812C60.2891 12.2552 59.5443 13.2031 58.0547 13.625V13.6562C58.4349 13.6979 58.7865 13.7917 59.1094 13.9375C59.4323 14.0781 59.7109 14.263 59.9453 14.4922C60.1797 14.7214 60.362 14.9922 60.4922 15.3047C60.6276 15.612 60.6953 15.9531 60.6953 16.3281ZM68.5156 8.29688V15.6953H69.9531V16.8672H68.5156V19.5H67.25V16.8672H61.9844V15.7578C62.474 15.2057 62.9688 14.6172 63.4688 13.9922C63.9688 13.362 64.4453 12.724 64.8984 12.0781C65.3568 11.4323 65.7786 10.7891 66.1641 10.1484C66.5547 9.5026 66.8828 8.88542 67.1484 8.29688H68.5156ZM63.4297 15.6953H67.25V10.2109C66.8594 10.8932 66.4896 11.5026 66.1406 12.0391C65.7917 12.5755 65.4583 13.0625 65.1406 13.5C64.8281 13.9375 64.5286 14.3333 64.2422 14.6875C63.9557 15.0417 63.6849 15.3776 63.4297 15.6953ZM82.4609 16.0781C82.4609 16.625 82.3672 17.1198 82.1797 17.5625C81.9922 18.0052 81.724 18.3854 81.375 18.7031C81.0312 19.0208 80.6146 19.2656 80.125 19.4375C79.6354 19.6094 79.0911 19.6953 78.4922 19.6953C77.4505 19.6953 76.6771 19.5391 76.1719 19.2266V17.8672C76.9323 18.3568 77.7109 18.6016 78.5078 18.6016C78.9141 18.6016 79.2786 18.5417 79.6016 18.4219C79.9297 18.3021 80.2083 18.1354 80.4375 17.9219C80.6667 17.7083 80.8411 17.4505 80.9609 17.1484C81.0859 16.8464 81.1484 16.5156 81.1484 16.1562C81.1484 15.4271 80.9036 14.8568 80.4141 14.4453C79.9245 14.0286 79.2135 13.8203 78.2812 13.8203C78.1302 13.8203 77.9714 13.8229 77.8047 13.8281C77.638 13.8333 77.4714 13.8411 77.3047 13.8516C77.138 13.8568 76.974 13.8646 76.8125 13.875C76.6562 13.8854 76.513 13.8984 76.3828 13.9141L76.7656 8.29688H81.9453V9.45312H77.875L77.6484 12.7422C77.8151 12.7318 77.9922 12.724 78.1797 12.7188C78.3672 12.7083 78.5339 12.7031 78.6797 12.7031C79.2734 12.7031 79.8047 12.7812 80.2734 12.9375C80.7422 13.0938 81.138 13.3177 81.4609 13.6094C81.7891 13.8958 82.0365 14.25 82.2031 14.6719C82.375 15.0885 82.4609 15.5573 82.4609 16.0781ZM91.5 15.9453C91.5 16.4922 91.4115 16.9948 91.2344 17.4531C91.0573 17.9115 90.8125 18.3073 90.5 18.6406C90.1875 18.974 89.8151 19.2344 89.3828 19.4219C88.9505 19.6042 88.4818 19.6953 87.9766 19.6953C87.4141 19.6953 86.9089 19.5781 86.4609 19.3438C86.0182 19.1094 85.6406 18.7734 85.3281 18.3359C85.0208 17.8932 84.7865 17.3542 84.625 16.7188C84.4635 16.0833 84.3828 15.3672 84.3828 14.5703C84.3828 13.5964 84.4896 12.7135 84.7031 11.9219C84.9219 11.125 85.2292 10.4453 85.625 9.88281C86.026 9.3151 86.5078 8.8776 87.0703 8.57031C87.6328 8.26302 88.2604 8.10938 88.9531 8.10938C89.724 8.10938 90.3438 8.21615 90.8125 8.42969V9.64062C90.2344 9.34375 89.625 9.19531 88.9844 9.19531C88.4844 9.19531 88.0339 9.30729 87.6328 9.53125C87.2318 9.75521 86.888 10.0729 86.6016 10.4844C86.3151 10.8906 86.0938 11.3828 85.9375 11.9609C85.7865 12.5391 85.7109 13.1823 85.7109 13.8906H85.7422C86.2578 12.9583 87.1094 12.4922 88.2969 12.4922C88.7865 12.4922 89.2266 12.5755 89.6172 12.7422C90.013 12.9089 90.349 13.1458 90.625 13.4531C90.9062 13.7552 91.1224 14.1172 91.2734 14.5391C91.4245 14.9609 91.5 15.4297 91.5 15.9453ZM90.1875 16.1094C90.1875 15.7188 90.138 15.3672 90.0391 15.0547C89.9401 14.7422 89.7969 14.4766 89.6094 14.2578C89.4271 14.0391 89.2005 13.8724 88.9297 13.7578C88.6589 13.638 88.3516 13.5781 88.0078 13.5781C87.6901 13.5781 87.3958 13.638 87.125 13.7578C86.8542 13.8776 86.6198 14.0417 86.4219 14.25C86.224 14.4531 86.0677 14.6927 85.9531 14.9688C85.8438 15.2396 85.7891 15.5286 85.7891 15.8359C85.7891 16.2214 85.8438 16.5833 85.9531 16.9219C86.0625 17.2552 86.2161 17.5469 86.4141 17.7969C86.612 18.0469 86.8464 18.2448 87.1172 18.3906C87.3932 18.5312 87.6979 18.6016 88.0312 18.6016C88.3542 18.6016 88.6484 18.5417 88.9141 18.4219C89.1797 18.2969 89.4062 18.125 89.5938 17.9062C89.7812 17.6875 89.9271 17.4271 90.0312 17.125C90.1354 16.8177 90.1875 16.4792 90.1875 16.1094ZM95.4062 16.3125C94.8646 16.3125 94.3984 16.1224 94.0078 15.7422C93.6172 15.362 93.4219 14.901 93.4219 14.3594C93.4219 13.8229 93.6172 13.3594 94.0078 12.9688C94.3984 12.5729 94.8646 12.375 95.4062 12.375C95.9479 12.375 96.4089 12.5703 96.7891 12.9609C97.1693 13.3516 97.3594 13.8177 97.3594 14.3594C97.3594 14.901 97.1693 15.362 96.7891 15.7422C96.4089 16.1224 95.9479 16.3125 95.4062 16.3125ZM101.906 16.3125C101.365 16.3125 100.898 16.1224 100.508 15.7422C100.117 15.362 99.9219 14.901 99.9219 14.3594C99.9219 13.8229 100.117 13.3594 100.508 12.9688C100.898 12.5729 101.365 12.375 101.906 12.375C102.448 12.375 102.909 12.5703 103.289 12.9609C103.669 13.3516 103.859 13.8177 103.859 14.3594C103.859 14.901 103.669 15.362 103.289 15.7422C102.909 16.1224 102.448 16.3125 101.906 16.3125ZM112.797 16.3125C112.255 16.3125 111.789 16.1224 111.398 15.7422C111.008 15.362 110.812 14.901 110.812 14.3594C110.812 13.8229 111.008 13.3594 111.398 12.9688C111.789 12.5729 112.255 12.375 112.797 12.375C113.339 12.375 113.799 12.5703 114.18 12.9609C114.56 13.3516 114.75 13.8177 114.75 14.3594C114.75 14.901 114.56 15.362 114.18 15.7422C113.799 16.1224 113.339 16.3125 112.797 16.3125ZM119.297 16.3125C118.755 16.3125 118.289 16.1224 117.898 15.7422C117.508 15.362 117.312 14.901 117.312 14.3594C117.312 13.8229 117.508 13.3594 117.898 12.9688C118.289 12.5729 118.755 12.375 119.297 12.375C119.839 12.375 120.299 12.5703 120.68 12.9609C121.06 13.3516 121.25 13.8177 121.25 14.3594C121.25 14.901 121.06 15.362 120.68 15.7422C120.299 16.1224 119.839 16.3125 119.297 16.3125ZM125.797 16.3125C125.255 16.3125 124.789 16.1224 124.398 15.7422C124.008 15.362 123.812 14.901 123.812 14.3594C123.812 13.8229 124.008 13.3594 124.398 12.9688C124.789 12.5729 125.255 12.375 125.797 12.375C126.339 12.375 126.799 12.5703 127.18 12.9609C127.56 13.3516 127.75 13.8177 127.75 14.3594C127.75 14.901 127.56 15.362 127.18 15.7422C126.799 16.1224 126.339 16.3125 125.797 16.3125ZM132.297 16.3125C131.755 16.3125 131.289 16.1224 130.898 15.7422C130.508 15.362 130.312 14.901 130.312 14.3594C130.312 13.8229 130.508 13.3594 130.898 12.9688C131.289 12.5729 131.755 12.375 132.297 12.375C132.839 12.375 133.299 12.5703 133.68 12.9609C134.06 13.3516 134.25 13.8177 134.25 14.3594C134.25 14.901 134.06 15.362 133.68 15.7422C133.299 16.1224 132.839 16.3125 132.297 16.3125ZM145.578 19.5H144.297V9.82031C144.198 9.91927 144.052 10.0339 143.859 10.1641C143.672 10.2891 143.458 10.4141 143.219 10.5391C142.984 10.6641 142.734 10.7812 142.469 10.8906C142.208 11 141.953 11.0859 141.703 11.1484V9.85156C141.984 9.77344 142.281 9.66927 142.594 9.53906C142.911 9.40365 143.221 9.25521 143.523 9.09375C143.831 8.92708 144.12 8.75521 144.391 8.57812C144.661 8.39583 144.896 8.21875 145.094 8.04688H145.578V19.5ZM154.578 11.2344C154.578 10.8906 154.523 10.5911 154.414 10.3359C154.31 10.0807 154.164 9.86979 153.977 9.70312C153.794 9.53125 153.578 9.40365 153.328 9.32031C153.078 9.23698 152.807 9.19531 152.516 9.19531C152.266 9.19531 152.021 9.22917 151.781 9.29688C151.542 9.36458 151.307 9.45833 151.078 9.57812C150.854 9.69792 150.635 9.84115 150.422 10.0078C150.214 10.1745 150.018 10.3594 149.836 10.5625V9.1875C150.195 8.83854 150.596 8.57292 151.039 8.39062C151.487 8.20312 152.031 8.10938 152.672 8.10938C153.13 8.10938 153.555 8.17708 153.945 8.3125C154.336 8.44271 154.674 8.63542 154.961 8.89062C155.247 9.14583 155.471 9.46094 155.633 9.83594C155.799 10.2109 155.883 10.6406 155.883 11.125C155.883 11.5677 155.831 11.9688 155.727 12.3281C155.628 12.6875 155.474 13.026 155.266 13.3438C155.062 13.6615 154.805 13.9661 154.492 14.2578C154.18 14.5495 153.812 14.8464 153.391 15.1484C152.865 15.5234 152.43 15.8438 152.086 16.1094C151.747 16.375 151.477 16.625 151.273 16.8594C151.076 17.0885 150.935 17.3203 150.852 17.5547C150.773 17.7839 150.734 18.0495 150.734 18.3516H156.312V19.5H149.398V18.9453C149.398 18.4661 149.451 18.0443 149.555 17.6797C149.659 17.3151 149.831 16.9688 150.07 16.6406C150.31 16.3125 150.622 15.9844 151.008 15.6562C151.398 15.3281 151.875 14.9583 152.438 14.5469C152.844 14.2552 153.182 13.9766 153.453 13.7109C153.729 13.4453 153.951 13.1797 154.117 12.9141C154.284 12.6484 154.401 12.3802 154.469 12.1094C154.542 11.8333 154.578 11.5417 154.578 11.2344ZM164.617 16.3281C164.617 16.8333 164.521 17.2943 164.328 17.7109C164.141 18.1224 163.872 18.4766 163.523 18.7734C163.18 19.0651 162.766 19.2917 162.281 19.4531C161.797 19.6146 161.263 19.6953 160.68 19.6953C159.612 19.6953 158.763 19.4922 158.133 19.0859V17.7109C158.888 18.3047 159.753 18.6016 160.727 18.6016C161.117 18.6016 161.469 18.5521 161.781 18.4531C162.099 18.3542 162.37 18.2109 162.594 18.0234C162.823 17.8359 162.997 17.6094 163.117 17.3438C163.242 17.0781 163.305 16.7786 163.305 16.4453C163.305 14.9818 162.263 14.25 160.18 14.25H159.25V13.1641H160.133C161.977 13.1641 162.898 12.4766 162.898 11.1016C162.898 9.83073 162.195 9.19531 160.789 9.19531C159.997 9.19531 159.255 9.46094 158.562 9.99219V8.75C159.276 8.32292 160.125 8.10938 161.109 8.10938C161.578 8.10938 162.003 8.17448 162.383 8.30469C162.763 8.4349 163.089 8.61719 163.359 8.85156C163.63 9.08594 163.839 9.36719 163.984 9.69531C164.135 10.0234 164.211 10.3854 164.211 10.7812C164.211 12.2552 163.466 13.2031 161.977 13.625V13.6562C162.357 13.6979 162.708 13.7917 163.031 13.9375C163.354 14.0781 163.633 14.263 163.867 14.4922C164.102 14.7214 164.284 14.9922 164.414 15.3047C164.549 15.612 164.617 15.9531 164.617 16.3281ZM172.438 8.29688V15.6953H173.875V16.8672H172.438V19.5H171.172V16.8672H165.906V15.7578C166.396 15.2057 166.891 14.6172 167.391 13.9922C167.891 13.362 168.367 12.724 168.82 12.0781C169.279 11.4323 169.701 10.7891 170.086 10.1484C170.477 9.5026 170.805 8.88542 171.07 8.29688H172.438ZM167.352 15.6953H171.172V10.2109C170.781 10.8932 170.411 11.5026 170.062 12.0391C169.714 12.5755 169.38 13.0625 169.062 13.5C168.75 13.9375 168.451 14.3333 168.164 14.6875C167.878 15.0417 167.607 15.3776 167.352 15.6953Z" fill="black"/>
</svg>
