<svg width="381" height="24" viewBox="0 0 381 24" fill="none" xmlns="http://www.w3.org/2000/svg">
<rect width="32" height="24" rx="4" fill="#F6F6FA"/>
<path d="M17.6813 8.84377L15.8645 12.7583H15.6806V8.00031H13.0852V16.0024H15.2372C15.8212 16.0024 16.3403 15.6672 16.589 15.1481L18.4166 11.2444H18.6005V16.0024H21.1959V8.00031H19.0114C18.4491 8.00031 17.9192 8.33553 17.6813 8.84377Z" fill="#319B42"/>
<path d="M7.97243 9.04923L6.90182 12.7583H6.71798L5.63656 9.04923C5.45271 8.42204 4.87956 8.00031 4.2307 8.00031H1.66772V16.0024H4.26315V11.2444H4.44699L5.93935 16.0024H7.66963L9.162 11.2444H9.34584V16.0024H11.9413V8.00031H9.37829C8.72943 8.00031 8.14546 8.42204 7.97243 9.04923Z" fill="#319B42"/>
<path d="M22.3244 11.5674V16.0024H24.9207V13.4063H27.7116C28.9232 13.4063 29.9509 12.6383 30.3295 11.5674H22.3244Z" fill="#319B42"/>
<path d="M27.6358 8.00031H21.8591C22.2161 9.90411 23.882 11.2454 25.8833 11.2454H30.3727C30.4051 11.0724 30.4267 10.8776 30.4267 10.6829C30.4267 9.1361 29.1827 8.00031 27.6358 8.00031Z" fill="url(#paint0_linear_7_2398)"/>
<path d="M45.1279 17H44.0869V9.13525C44.0065 9.21566 43.888 9.30876 43.7314 9.41455C43.5791 9.51611 43.4056 9.61768 43.2109 9.71924C43.0205 9.8208 42.8174 9.91602 42.6016 10.0049C42.39 10.0938 42.1826 10.1636 41.9795 10.2144V9.16064C42.208 9.09717 42.4492 9.01253 42.7031 8.90674C42.9613 8.79671 43.2131 8.67611 43.4585 8.54492C43.7082 8.40951 43.943 8.26986 44.1631 8.12598C44.3831 7.97786 44.5736 7.83398 44.7344 7.69434H45.1279V17ZM52.4404 10.2842C52.4404 10.0049 52.396 9.76156 52.3071 9.5542C52.2225 9.34684 52.104 9.17546 51.9517 9.04004C51.8035 8.90039 51.6279 8.79671 51.4248 8.729C51.2217 8.6613 51.0016 8.62744 50.7646 8.62744C50.5615 8.62744 50.3626 8.65495 50.168 8.70996C49.9733 8.76497 49.7829 8.84115 49.5967 8.93848C49.4147 9.03581 49.237 9.15218 49.0635 9.2876C48.8942 9.42301 48.7355 9.57324 48.5874 9.73828V8.62109C48.8794 8.33757 49.2052 8.12174 49.5649 7.97363C49.9289 7.82129 50.3711 7.74512 50.8916 7.74512C51.264 7.74512 51.6089 7.80013 51.9263 7.91016C52.2437 8.01595 52.5187 8.17253 52.7515 8.37988C52.9842 8.58724 53.1662 8.84326 53.2974 9.14795C53.4328 9.45264 53.5005 9.80176 53.5005 10.1953C53.5005 10.555 53.4582 10.8809 53.3735 11.1729C53.2931 11.4648 53.1683 11.7399 52.999 11.998C52.834 12.2562 52.6245 12.5037 52.3706 12.7407C52.1167 12.9777 51.8184 13.2189 51.4756 13.4644C51.0482 13.769 50.6948 14.0293 50.4155 14.2451C50.1405 14.4609 49.9204 14.6641 49.7554 14.8545C49.5946 15.0407 49.4803 15.229 49.4126 15.4194C49.3491 15.6056 49.3174 15.8215 49.3174 16.0669H53.8496V17H48.2319V16.5493C48.2319 16.16 48.2743 15.8172 48.3589 15.521C48.4435 15.2248 48.5832 14.9434 48.7778 14.6768C48.9725 14.4102 49.2264 14.1436 49.5396 13.877C49.8569 13.6104 50.2441 13.3099 50.7012 12.9756C51.0312 12.7386 51.3063 12.5122 51.5264 12.2964C51.7507 12.0806 51.9305 11.8647 52.0659 11.6489C52.2013 11.4331 52.2965 11.2152 52.3516 10.9951C52.4108 10.7708 52.4404 10.5339 52.4404 10.2842ZM60.5972 14.4229C60.5972 14.8333 60.5189 15.2078 60.3623 15.5464C60.21 15.8807 59.992 16.1685 59.7085 16.4097C59.4292 16.6466 59.0928 16.8307 58.6992 16.9619C58.3057 17.0931 57.8719 17.1587 57.3979 17.1587C56.5304 17.1587 55.8407 16.9937 55.3286 16.6636V15.5464C55.9422 16.0288 56.6447 16.27 57.436 16.27C57.7534 16.27 58.0391 16.2298 58.293 16.1494C58.5511 16.069 58.7712 15.9526 58.9531 15.8003C59.1393 15.6479 59.2811 15.4639 59.3784 15.248C59.48 15.0322 59.5308 14.7889 59.5308 14.5181C59.5308 13.3289 58.6844 12.7344 56.9917 12.7344H56.2363V11.8521H56.9536C58.4517 11.8521 59.2007 11.2935 59.2007 10.1763C59.2007 9.14372 58.6294 8.62744 57.4868 8.62744C56.8436 8.62744 56.2406 8.84326 55.6777 9.2749V8.26562C56.2575 7.91862 56.9473 7.74512 57.7471 7.74512C58.1279 7.74512 58.4728 7.79801 58.7817 7.90381C59.0907 8.0096 59.3551 8.15771 59.5752 8.34814C59.7952 8.53857 59.9645 8.76709 60.083 9.03369C60.2057 9.30029 60.2671 9.5944 60.2671 9.91602C60.2671 11.1136 59.6619 11.8838 58.4517 12.2266V12.252C58.7606 12.2858 59.0462 12.362 59.3086 12.4805C59.571 12.5947 59.7974 12.745 59.9878 12.9312C60.1782 13.1174 60.3263 13.3374 60.4321 13.5913C60.5422 13.841 60.5972 14.1182 60.5972 14.4229ZM66.9512 7.89746V13.9087H68.1191V14.8608H66.9512V17H65.9229V14.8608H61.6445V13.9595C62.0423 13.5109 62.4443 13.0327 62.8506 12.5249C63.2568 12.0129 63.644 11.4945 64.0122 10.9697C64.3846 10.445 64.7274 9.92236 65.0405 9.40186C65.3579 8.87712 65.6245 8.37565 65.8403 7.89746H66.9512ZM62.8188 13.9087H65.9229V9.45264C65.6055 10.007 65.305 10.5021 65.0215 10.938C64.738 11.3739 64.4671 11.7695 64.209 12.125C63.9551 12.4805 63.7118 12.8021 63.479 13.0898C63.2463 13.3776 63.0262 13.6506 62.8188 13.9087ZM76.7266 17H75.6855V9.13525C75.6051 9.21566 75.4867 9.30876 75.3301 9.41455C75.1777 9.51611 75.0042 9.61768 74.8096 9.71924C74.6191 9.8208 74.416 9.91602 74.2002 10.0049C73.9886 10.0938 73.7812 10.1636 73.5781 10.2144V9.16064C73.8066 9.09717 74.0479 9.01253 74.3018 8.90674C74.5599 8.79671 74.8117 8.67611 75.0571 8.54492C75.3068 8.40951 75.5417 8.26986 75.7617 8.12598C75.9818 7.97786 76.1722 7.83398 76.333 7.69434H76.7266V17ZM84.0391 10.2842C84.0391 10.0049 83.9946 9.76156 83.9058 9.5542C83.8211 9.34684 83.7026 9.17546 83.5503 9.04004C83.4022 8.90039 83.2266 8.79671 83.0234 8.729C82.8203 8.6613 82.6003 8.62744 82.3633 8.62744C82.1602 8.62744 81.9613 8.65495 81.7666 8.70996C81.5719 8.76497 81.3815 8.84115 81.1953 8.93848C81.0133 9.03581 80.8356 9.15218 80.6621 9.2876C80.4928 9.42301 80.3341 9.57324 80.186 9.73828V8.62109C80.478 8.33757 80.8039 8.12174 81.1636 7.97363C81.5275 7.82129 81.9697 7.74512 82.4902 7.74512C82.8626 7.74512 83.2075 7.80013 83.5249 7.91016C83.8423 8.01595 84.1174 8.17253 84.3501 8.37988C84.5828 8.58724 84.7648 8.84326 84.896 9.14795C85.0314 9.45264 85.0991 9.80176 85.0991 10.1953C85.0991 10.555 85.0568 10.8809 84.9722 11.1729C84.8918 11.4648 84.7669 11.7399 84.5977 11.998C84.4326 12.2562 84.2231 12.5037 83.9692 12.7407C83.7153 12.9777 83.417 13.2189 83.0742 13.4644C82.6468 13.769 82.2935 14.0293 82.0142 14.2451C81.7391 14.4609 81.519 14.6641 81.354 14.8545C81.1932 15.0407 81.0789 15.229 81.0112 15.4194C80.9478 15.6056 80.916 15.8215 80.916 16.0669H85.4482V17H79.8306V16.5493C79.8306 16.16 79.8729 15.8172 79.9575 15.521C80.0422 15.2248 80.1818 14.9434 80.3765 14.6768C80.5711 14.4102 80.825 14.1436 81.1382 13.877C81.4556 13.6104 81.8428 13.3099 82.2998 12.9756C82.6299 12.7386 82.9049 12.5122 83.125 12.2964C83.3493 12.0806 83.5291 11.8647 83.6646 11.6489C83.8 11.4331 83.8952 11.2152 83.9502 10.9951C84.0094 10.7708 84.0391 10.5339 84.0391 10.2842ZM88.7998 14.4102C88.3597 14.4102 87.981 14.2557 87.6636 13.9468C87.3462 13.6379 87.1875 13.2633 87.1875 12.8232C87.1875 12.3874 87.3462 12.0107 87.6636 11.6934C87.981 11.3717 88.3597 11.2109 88.7998 11.2109C89.2399 11.2109 89.6144 11.3696 89.9233 11.687C90.2323 12.0044 90.3867 12.3831 90.3867 12.8232C90.3867 13.2633 90.2323 13.6379 89.9233 13.9468C89.6144 14.2557 89.2399 14.4102 88.7998 14.4102ZM94.0811 14.4102C93.641 14.4102 93.2622 14.2557 92.9448 13.9468C92.6274 13.6379 92.4688 13.2633 92.4688 12.8232C92.4688 12.3874 92.6274 12.0107 92.9448 11.6934C93.2622 11.3717 93.641 11.2109 94.0811 11.2109C94.5212 11.2109 94.8957 11.3696 95.2046 11.687C95.5135 12.0044 95.668 12.3831 95.668 12.8232C95.668 13.2633 95.5135 13.6379 95.2046 13.9468C94.8957 14.2557 94.5212 14.4102 94.0811 14.4102ZM102.93 14.4102C102.49 14.4102 102.111 14.2557 101.793 13.9468C101.476 13.6379 101.317 13.2633 101.317 12.8232C101.317 12.3874 101.476 12.0107 101.793 11.6934C102.111 11.3717 102.49 11.2109 102.93 11.2109C103.37 11.2109 103.744 11.3696 104.053 11.687C104.362 12.0044 104.517 12.3831 104.517 12.8232C104.517 13.2633 104.362 13.6379 104.053 13.9468C103.744 14.2557 103.37 14.4102 102.93 14.4102ZM108.211 14.4102C107.771 14.4102 107.392 14.2557 107.075 13.9468C106.757 13.6379 106.599 13.2633 106.599 12.8232C106.599 12.3874 106.757 12.0107 107.075 11.6934C107.392 11.3717 107.771 11.2109 108.211 11.2109C108.651 11.2109 109.026 11.3696 109.334 11.687C109.643 12.0044 109.798 12.3831 109.798 12.8232C109.798 13.2633 109.643 13.6379 109.334 13.9468C109.026 14.2557 108.651 14.4102 108.211 14.4102ZM113.492 14.4102C113.052 14.4102 112.673 14.2557 112.356 13.9468C112.039 13.6379 111.88 13.2633 111.88 12.8232C111.88 12.3874 112.039 12.0107 112.356 11.6934C112.673 11.3717 113.052 11.2109 113.492 11.2109C113.932 11.2109 114.307 11.3696 114.616 11.687C114.925 12.0044 115.079 12.3831 115.079 12.8232C115.079 13.2633 114.925 13.6379 114.616 13.9468C114.307 14.2557 113.932 14.4102 113.492 14.4102ZM118.773 14.4102C118.333 14.4102 117.955 14.2557 117.637 13.9468C117.32 13.6379 117.161 13.2633 117.161 12.8232C117.161 12.3874 117.32 12.0107 117.637 11.6934C117.955 11.3717 118.333 11.2109 118.773 11.2109C119.214 11.2109 119.588 11.3696 119.897 11.687C120.206 12.0044 120.36 12.3831 120.36 12.8232C120.36 13.2633 120.206 13.6379 119.897 13.9468C119.588 14.2557 119.214 14.4102 118.773 14.4102ZM129.564 17H128.523V9.13525C128.443 9.21566 128.325 9.30876 128.168 9.41455C128.016 9.51611 127.842 9.61768 127.647 9.71924C127.457 9.8208 127.254 9.91602 127.038 10.0049C126.826 10.0938 126.619 10.1636 126.416 10.2144V9.16064C126.645 9.09717 126.886 9.01253 127.14 8.90674C127.398 8.79671 127.65 8.67611 127.895 8.54492C128.145 8.40951 128.38 8.26986 128.6 8.12598C128.82 7.97786 129.01 7.83398 129.171 7.69434H129.564V17ZM136.877 10.2842C136.877 10.0049 136.833 9.76156 136.744 9.5542C136.659 9.34684 136.541 9.17546 136.388 9.04004C136.24 8.90039 136.064 8.79671 135.861 8.729C135.658 8.6613 135.438 8.62744 135.201 8.62744C134.998 8.62744 134.799 8.65495 134.604 8.70996C134.41 8.76497 134.219 8.84115 134.033 8.93848C133.851 9.03581 133.674 9.15218 133.5 9.2876C133.331 9.42301 133.172 9.57324 133.024 9.73828V8.62109C133.316 8.33757 133.642 8.12174 134.001 7.97363C134.365 7.82129 134.808 7.74512 135.328 7.74512C135.701 7.74512 136.045 7.80013 136.363 7.91016C136.68 8.01595 136.955 8.17253 137.188 8.37988C137.421 8.58724 137.603 8.84326 137.734 9.14795C137.869 9.45264 137.937 9.80176 137.937 10.1953C137.937 10.555 137.895 10.8809 137.81 11.1729C137.73 11.4648 137.605 11.7399 137.436 11.998C137.271 12.2562 137.061 12.5037 136.807 12.7407C136.553 12.9777 136.255 13.2189 135.912 13.4644C135.485 13.769 135.131 14.0293 134.852 14.2451C134.577 14.4609 134.357 14.6641 134.192 14.8545C134.031 15.0407 133.917 15.229 133.849 15.4194C133.786 15.6056 133.754 15.8215 133.754 16.0669H138.286V17H132.668V16.5493C132.668 16.16 132.711 15.8172 132.795 15.521C132.88 15.2248 133.02 14.9434 133.214 14.6768C133.409 14.4102 133.663 14.1436 133.976 13.877C134.293 13.6104 134.681 13.3099 135.138 12.9756C135.468 12.7386 135.743 12.5122 135.963 12.2964C136.187 12.0806 136.367 11.8647 136.502 11.6489C136.638 11.4331 136.733 11.2152 136.788 10.9951C136.847 10.7708 136.877 10.5339 136.877 10.2842ZM145.034 14.4229C145.034 14.8333 144.955 15.2078 144.799 15.5464C144.646 15.8807 144.429 16.1685 144.145 16.4097C143.866 16.6466 143.529 16.8307 143.136 16.9619C142.742 17.0931 142.308 17.1587 141.834 17.1587C140.967 17.1587 140.277 16.9937 139.765 16.6636V15.5464C140.379 16.0288 141.081 16.27 141.873 16.27C142.19 16.27 142.476 16.2298 142.729 16.1494C142.988 16.069 143.208 15.9526 143.39 15.8003C143.576 15.6479 143.718 15.4639 143.815 15.248C143.917 15.0322 143.967 14.7889 143.967 14.5181C143.967 13.3289 143.121 12.7344 141.428 12.7344H140.673V11.8521H141.39C142.888 11.8521 143.637 11.2935 143.637 10.1763C143.637 9.14372 143.066 8.62744 141.923 8.62744C141.28 8.62744 140.677 8.84326 140.114 9.2749V8.26562C140.694 7.91862 141.384 7.74512 142.184 7.74512C142.564 7.74512 142.909 7.79801 143.218 7.90381C143.527 8.0096 143.792 8.15771 144.012 8.34814C144.232 8.53857 144.401 8.76709 144.52 9.03369C144.642 9.30029 144.704 9.5944 144.704 9.91602C144.704 11.1136 144.098 11.8838 142.888 12.2266V12.252C143.197 12.2858 143.483 12.362 143.745 12.4805C144.007 12.5947 144.234 12.745 144.424 12.9312C144.615 13.1174 144.763 13.3374 144.869 13.5913C144.979 13.841 145.034 14.1182 145.034 14.4229ZM151.388 7.89746V13.9087H152.556V14.8608H151.388V17H150.359V14.8608H146.081V13.9595C146.479 13.5109 146.881 13.0327 147.287 12.5249C147.693 12.0129 148.081 11.4945 148.449 10.9697C148.821 10.445 149.164 9.92236 149.477 9.40186C149.794 8.87712 150.061 8.37565 150.277 7.89746H151.388ZM147.255 13.9087H150.359V9.45264C150.042 10.007 149.742 10.5021 149.458 10.938C149.174 11.3739 148.904 11.7695 148.646 12.125C148.392 12.4805 148.148 12.8021 147.916 13.0898C147.683 13.3776 147.463 13.6506 147.255 13.9087Z" fill="black"/>
<defs>
<linearGradient id="paint0_linear_7_2398" x1="21.8591" y1="9.62287" x2="30.4267" y2="9.62287" gradientUnits="userSpaceOnUse">
<stop stop-color="#00A3E1"/>
<stop offset="0.3042" stop-color="#009ADD"/>
<stop offset="0.7987" stop-color="#0082D4"/>
<stop offset="1" stop-color="#0076CF"/>
</linearGradient>
</defs>
</svg>
